<mxfile host="app.diagrams.net" modified="2021-08-10T06:05:06.232Z" agent="5.0 (Macintosh; Intel Mac OS X 10_15_7) AppleWebKit/537.36 (KHTML, like Gecko) Chrome/92.0.4515.131 Safari/537.36" etag="tfrpYSy-ZPUoRpTZGHWo" version="14.9.4" type="github">
  <diagram id="YMGBd7ySaNqtOtkmueOO" name="Page-1">
    <mxGraphModel dx="1554" dy="993" grid="1" gridSize="10" guides="1" tooltips="1" connect="1" arrows="1" fold="1" page="1" pageScale="1" pageWidth="850" pageHeight="1100" math="0" shadow="0">
      <root>
        <mxCell id="0" />
        <mxCell id="1" parent="0" />
        <mxCell id="LphkcjIF1PR3EvdTF3-g-39" style="edgeStyle=orthogonalEdgeStyle;rounded=0;orthogonalLoop=1;jettySize=auto;html=1;exitX=0.5;exitY=1;exitDx=0;exitDy=0;strokeColor=#000000;entryX=0.5;entryY=0;entryDx=0;entryDy=0;" edge="1" parent="1" source="LphkcjIF1PR3EvdTF3-g-1" target="LphkcjIF1PR3EvdTF3-g-4">
          <mxGeometry relative="1" as="geometry">
            <mxPoint x="530" y="90" as="targetPoint" />
          </mxGeometry>
        </mxCell>
        <mxCell id="LphkcjIF1PR3EvdTF3-g-1" value="" style="ellipse;html=1;shape=startState;fillColor=#000000;strokeColor=#ff0000;" vertex="1" parent="1">
          <mxGeometry x="515" y="40" width="30" height="30" as="geometry" />
        </mxCell>
        <mxCell id="LphkcjIF1PR3EvdTF3-g-40" style="edgeStyle=orthogonalEdgeStyle;rounded=0;orthogonalLoop=1;jettySize=auto;html=1;exitX=0.5;exitY=1;exitDx=0;exitDy=0;entryX=0.5;entryY=0;entryDx=0;entryDy=0;strokeColor=#000000;" edge="1" parent="1" source="LphkcjIF1PR3EvdTF3-g-4" target="LphkcjIF1PR3EvdTF3-g-5">
          <mxGeometry relative="1" as="geometry" />
        </mxCell>
        <mxCell id="LphkcjIF1PR3EvdTF3-g-4" value="Get SystemBean" style="rounded=0;whiteSpace=wrap;html=1;" vertex="1" parent="1">
          <mxGeometry x="470" y="120" width="120" height="60" as="geometry" />
        </mxCell>
        <mxCell id="LphkcjIF1PR3EvdTF3-g-8" style="edgeStyle=orthogonalEdgeStyle;rounded=0;orthogonalLoop=1;jettySize=auto;html=1;exitX=1;exitY=0.5;exitDx=0;exitDy=0;entryX=0.5;entryY=0;entryDx=0;entryDy=0;" edge="1" parent="1" source="LphkcjIF1PR3EvdTF3-g-5" target="LphkcjIF1PR3EvdTF3-g-7">
          <mxGeometry relative="1" as="geometry" />
        </mxCell>
        <mxCell id="LphkcjIF1PR3EvdTF3-g-11" style="edgeStyle=orthogonalEdgeStyle;rounded=0;orthogonalLoop=1;jettySize=auto;html=1;exitX=0;exitY=0.5;exitDx=0;exitDy=0;entryX=0.5;entryY=0;entryDx=0;entryDy=0;" edge="1" parent="1" source="LphkcjIF1PR3EvdTF3-g-5" target="LphkcjIF1PR3EvdTF3-g-9">
          <mxGeometry relative="1" as="geometry" />
        </mxCell>
        <mxCell id="LphkcjIF1PR3EvdTF3-g-5" value="" style="rhombus;whiteSpace=wrap;html=1;" vertex="1" parent="1">
          <mxGeometry x="500" y="230" width="60" height="60" as="geometry" />
        </mxCell>
        <mxCell id="LphkcjIF1PR3EvdTF3-g-6" value="is bean null" style="text;html=1;align=center;verticalAlign=middle;resizable=0;points=[];autosize=1;strokeColor=none;" vertex="1" parent="1">
          <mxGeometry x="550" y="220" width="80" height="20" as="geometry" />
        </mxCell>
        <mxCell id="LphkcjIF1PR3EvdTF3-g-7" value="" style="ellipse;html=1;shape=endState;fillColor=#000000;strokeColor=#ff0000;" vertex="1" parent="1">
          <mxGeometry x="620" y="780" width="30" height="30" as="geometry" />
        </mxCell>
        <mxCell id="LphkcjIF1PR3EvdTF3-g-18" style="edgeStyle=orthogonalEdgeStyle;rounded=0;orthogonalLoop=1;jettySize=auto;html=1;exitX=0;exitY=0.5;exitDx=0;exitDy=0;" edge="1" parent="1" source="LphkcjIF1PR3EvdTF3-g-9" target="LphkcjIF1PR3EvdTF3-g-17">
          <mxGeometry relative="1" as="geometry" />
        </mxCell>
        <mxCell id="LphkcjIF1PR3EvdTF3-g-37" style="edgeStyle=orthogonalEdgeStyle;rounded=0;orthogonalLoop=1;jettySize=auto;html=1;exitX=1;exitY=0.5;exitDx=0;exitDy=0;" edge="1" parent="1" source="LphkcjIF1PR3EvdTF3-g-9">
          <mxGeometry relative="1" as="geometry">
            <mxPoint x="630" y="330" as="targetPoint" />
          </mxGeometry>
        </mxCell>
        <mxCell id="LphkcjIF1PR3EvdTF3-g-9" value="" style="rhombus;whiteSpace=wrap;html=1;" vertex="1" parent="1">
          <mxGeometry x="420" y="300" width="60" height="60" as="geometry" />
        </mxCell>
        <mxCell id="LphkcjIF1PR3EvdTF3-g-12" value="is blob null" style="text;html=1;align=center;verticalAlign=middle;resizable=0;points=[];autosize=1;strokeColor=none;" vertex="1" parent="1">
          <mxGeometry x="470" y="300" width="70" height="20" as="geometry" />
        </mxCell>
        <mxCell id="LphkcjIF1PR3EvdTF3-g-14" value="Yes" style="text;html=1;align=center;verticalAlign=middle;resizable=0;points=[];autosize=1;strokeColor=none;" vertex="1" parent="1">
          <mxGeometry x="570" y="260" width="40" height="20" as="geometry" />
        </mxCell>
        <mxCell id="LphkcjIF1PR3EvdTF3-g-15" value="No" style="text;html=1;align=center;verticalAlign=middle;resizable=0;points=[];autosize=1;strokeColor=none;" vertex="1" parent="1">
          <mxGeometry x="455" y="260" width="30" height="20" as="geometry" />
        </mxCell>
        <mxCell id="LphkcjIF1PR3EvdTF3-g-16" value="Yes" style="text;html=1;align=center;verticalAlign=middle;resizable=0;points=[];autosize=1;strokeColor=none;" vertex="1" parent="1">
          <mxGeometry x="485" y="340" width="40" height="20" as="geometry" />
        </mxCell>
        <mxCell id="LphkcjIF1PR3EvdTF3-g-21" style="edgeStyle=orthogonalEdgeStyle;rounded=0;orthogonalLoop=1;jettySize=auto;html=1;exitX=1;exitY=0.5;exitDx=0;exitDy=0;" edge="1" parent="1" source="LphkcjIF1PR3EvdTF3-g-17">
          <mxGeometry relative="1" as="geometry">
            <mxPoint x="630" y="410" as="targetPoint" />
          </mxGeometry>
        </mxCell>
        <mxCell id="LphkcjIF1PR3EvdTF3-g-24" style="edgeStyle=orthogonalEdgeStyle;rounded=0;orthogonalLoop=1;jettySize=auto;html=1;exitX=0;exitY=0.5;exitDx=0;exitDy=0;entryX=0.5;entryY=0;entryDx=0;entryDy=0;" edge="1" parent="1" source="LphkcjIF1PR3EvdTF3-g-17" target="LphkcjIF1PR3EvdTF3-g-23">
          <mxGeometry relative="1" as="geometry" />
        </mxCell>
        <mxCell id="LphkcjIF1PR3EvdTF3-g-17" value="" style="rhombus;whiteSpace=wrap;html=1;" vertex="1" parent="1">
          <mxGeometry x="340" y="380" width="60" height="60" as="geometry" />
        </mxCell>
        <mxCell id="LphkcjIF1PR3EvdTF3-g-19" value="No" style="text;html=1;align=center;verticalAlign=middle;resizable=0;points=[];autosize=1;strokeColor=none;" vertex="1" parent="1">
          <mxGeometry x="370" y="340" width="30" height="20" as="geometry" />
        </mxCell>
        <mxCell id="LphkcjIF1PR3EvdTF3-g-20" value="isExtLearningIpTurnOff" style="text;html=1;align=center;verticalAlign=middle;resizable=0;points=[];autosize=1;strokeColor=none;" vertex="1" parent="1">
          <mxGeometry x="390" y="380" width="140" height="20" as="geometry" />
        </mxCell>
        <mxCell id="LphkcjIF1PR3EvdTF3-g-22" value="Yes" style="text;html=1;align=center;verticalAlign=middle;resizable=0;points=[];autosize=1;strokeColor=none;" vertex="1" parent="1">
          <mxGeometry x="400" y="410" width="40" height="20" as="geometry" />
        </mxCell>
        <mxCell id="LphkcjIF1PR3EvdTF3-g-27" style="edgeStyle=orthogonalEdgeStyle;rounded=0;orthogonalLoop=1;jettySize=auto;html=1;exitX=1;exitY=0.5;exitDx=0;exitDy=0;" edge="1" parent="1" source="LphkcjIF1PR3EvdTF3-g-23">
          <mxGeometry relative="1" as="geometry">
            <mxPoint x="630" y="480" as="targetPoint" />
          </mxGeometry>
        </mxCell>
        <mxCell id="LphkcjIF1PR3EvdTF3-g-30" style="edgeStyle=orthogonalEdgeStyle;rounded=0;orthogonalLoop=1;jettySize=auto;html=1;exitX=0;exitY=0.5;exitDx=0;exitDy=0;entryX=0.5;entryY=0;entryDx=0;entryDy=0;" edge="1" parent="1" source="LphkcjIF1PR3EvdTF3-g-23">
          <mxGeometry relative="1" as="geometry">
            <mxPoint x="210" y="520" as="targetPoint" />
          </mxGeometry>
        </mxCell>
        <mxCell id="LphkcjIF1PR3EvdTF3-g-23" value="" style="rhombus;whiteSpace=wrap;html=1;" vertex="1" parent="1">
          <mxGeometry x="260" y="450" width="60" height="60" as="geometry" />
        </mxCell>
        <mxCell id="LphkcjIF1PR3EvdTF3-g-25" value="No" style="text;html=1;align=center;verticalAlign=middle;resizable=0;points=[];autosize=1;strokeColor=none;" vertex="1" parent="1">
          <mxGeometry x="295" y="410" width="30" height="20" as="geometry" />
        </mxCell>
        <mxCell id="LphkcjIF1PR3EvdTF3-g-26" value="isExtOnboardingIpTurnOff" style="text;html=1;align=center;verticalAlign=middle;resizable=0;points=[];autosize=1;strokeColor=none;" vertex="1" parent="1">
          <mxGeometry x="305" y="450" width="150" height="20" as="geometry" />
        </mxCell>
        <mxCell id="LphkcjIF1PR3EvdTF3-g-28" value="Yes" style="text;html=1;align=center;verticalAlign=middle;resizable=0;points=[];autosize=1;strokeColor=none;" vertex="1" parent="1">
          <mxGeometry x="330" y="480" width="40" height="20" as="geometry" />
        </mxCell>
        <mxCell id="LphkcjIF1PR3EvdTF3-g-31" value="No" style="text;html=1;align=center;verticalAlign=middle;resizable=0;points=[];autosize=1;strokeColor=none;" vertex="1" parent="1">
          <mxGeometry x="210" y="480" width="30" height="20" as="geometry" />
        </mxCell>
        <mxCell id="LphkcjIF1PR3EvdTF3-g-36" style="edgeStyle=orthogonalEdgeStyle;rounded=0;orthogonalLoop=1;jettySize=auto;html=1;exitX=0.5;exitY=1;exitDx=0;exitDy=0;" edge="1" parent="1" source="LphkcjIF1PR3EvdTF3-g-33" target="LphkcjIF1PR3EvdTF3-g-7">
          <mxGeometry relative="1" as="geometry">
            <mxPoint x="580" y="760" as="targetPoint" />
          </mxGeometry>
        </mxCell>
        <mxCell id="LphkcjIF1PR3EvdTF3-g-33" value="Blob context IP range check&amp;nbsp;" style="rounded=0;whiteSpace=wrap;html=1;" vertex="1" parent="1">
          <mxGeometry x="80" y="630" width="120" height="60" as="geometry" />
        </mxCell>
        <mxCell id="LphkcjIF1PR3EvdTF3-g-43" style="edgeStyle=orthogonalEdgeStyle;rounded=0;orthogonalLoop=1;jettySize=auto;html=1;exitX=1;exitY=0.5;exitDx=0;exitDy=0;strokeColor=#000000;" edge="1" parent="1" source="LphkcjIF1PR3EvdTF3-g-41">
          <mxGeometry relative="1" as="geometry">
            <mxPoint x="630" y="550" as="targetPoint" />
          </mxGeometry>
        </mxCell>
        <mxCell id="LphkcjIF1PR3EvdTF3-g-45" style="edgeStyle=orthogonalEdgeStyle;rounded=0;orthogonalLoop=1;jettySize=auto;html=1;exitX=0;exitY=0.5;exitDx=0;exitDy=0;entryX=0.5;entryY=0;entryDx=0;entryDy=0;strokeColor=#000000;" edge="1" parent="1" source="LphkcjIF1PR3EvdTF3-g-41" target="LphkcjIF1PR3EvdTF3-g-33">
          <mxGeometry relative="1" as="geometry" />
        </mxCell>
        <mxCell id="LphkcjIF1PR3EvdTF3-g-41" value="" style="rhombus;whiteSpace=wrap;html=1;" vertex="1" parent="1">
          <mxGeometry x="180" y="520" width="60" height="60" as="geometry" />
        </mxCell>
        <mxCell id="LphkcjIF1PR3EvdTF3-g-42" value="is blob context blank" style="text;html=1;align=center;verticalAlign=middle;resizable=0;points=[];autosize=1;strokeColor=none;" vertex="1" parent="1">
          <mxGeometry x="230" y="520" width="120" height="20" as="geometry" />
        </mxCell>
        <mxCell id="LphkcjIF1PR3EvdTF3-g-44" value="Yes" style="text;html=1;align=center;verticalAlign=middle;resizable=0;points=[];autosize=1;strokeColor=none;" vertex="1" parent="1">
          <mxGeometry x="240" y="550" width="40" height="20" as="geometry" />
        </mxCell>
        <mxCell id="LphkcjIF1PR3EvdTF3-g-46" value="No" style="text;html=1;align=center;verticalAlign=middle;resizable=0;points=[];autosize=1;strokeColor=none;" vertex="1" parent="1">
          <mxGeometry x="140" y="550" width="30" height="20" as="geometry" />
        </mxCell>
      </root>
    </mxGraphModel>
  </diagram>
</mxfile>
